<?xml version="1.0" encoding="UTF-8" standalone="no"?>
<svg
   xmlns:dc="http://purl.org/dc/elements/1.1/"
   xmlns:cc="http://creativecommons.org/ns#"
   xmlns:rdf="http://www.w3.org/1999/02/22-rdf-syntax-ns#"
   xmlns:svg="http://www.w3.org/2000/svg"
   xmlns="http://www.w3.org/2000/svg"
   xmlns:xlink="http://www.w3.org/1999/xlink"
   xmlns:sodipodi="http://sodipodi.sourceforge.net/DTD/sodipodi-0.dtd"
   xmlns:inkscape="http://www.inkscape.org/namespaces/inkscape"
   inkscape:export-ydpi="52.34"
   inkscape:export-xdpi="52.34"
   inkscape:export-filename="D:\Pictures\inksacape\logo_geinf.png"
   sodipodi:docname="logo_geinf.svg"
   inkscape:version="1.0 (4035a4fb49, 2020-05-01)"
   id="svg1195"
   version="1.1"
   viewBox="0 0 211.66666 211.66667"
   height="800"
   width="800">
  <defs
     id="defs1189">
    <linearGradient
       id="linearGradient2041"
       inkscape:collect="always">
      <stop
         id="stop2037"
         offset="0"
         style="stop-color:#000080;stop-opacity:1;" />
      <stop
         id="stop2039"
         offset="1"
         style="stop-color:#000080;stop-opacity:0;" />
    </linearGradient>
    <linearGradient
       id="linearGradient1259"
       inkscape:collect="always">
      <stop
         id="stop1255"
         offset="0"
         style="stop-color:#000080;stop-opacity:1;" />
      <stop
         id="stop1257"
         offset="1"
         style="stop-color:#000080;stop-opacity:0;" />
    </linearGradient>
    <linearGradient
       gradientTransform="matrix(0.99572865,0,0,1.0057288,-2.0734614,-529.25407)"
       y2="329.99258"
       x2="-113.08898"
       y1="792.5401"
       x1="-380.64099"
       gradientUnits="userSpaceOnUse"
       id="linearGradient1874"
       xlink:href="#linearGradient1259"
       inkscape:collect="always" />
    <linearGradient
       gradientTransform="matrix(0.99572866,0,0,1.0057288,-2.0734612,-529.25404)"
       y2="329.99258"
       x2="-113.08898"
       y1="792.5401"
       x1="-380.64099"
       gradientUnits="userSpaceOnUse"
       id="linearGradient1876"
       xlink:href="#linearGradient1259"
       inkscape:collect="always" />
    <linearGradient
       gradientTransform="matrix(0.99572866,0,0,1.0057288,-2.0734612,-529.25404)"
       y2="329.99258"
       x2="-113.08898"
       y1="792.5401"
       x1="-380.64099"
       gradientUnits="userSpaceOnUse"
       id="linearGradient1878"
       xlink:href="#linearGradient1259"
       inkscape:collect="always" />
    <linearGradient
       gradientTransform="matrix(0.99572866,0,0,1.0057288,-2.0734612,-529.25404)"
       y2="329.99258"
       x2="-113.08898"
       y1="792.5401"
       x1="-380.64099"
       gradientUnits="userSpaceOnUse"
       id="linearGradient1880"
       xlink:href="#linearGradient1259"
       inkscape:collect="always" />
    <linearGradient
       gradientTransform="matrix(0.99572866,0,0,1.0057288,-2.0734612,-529.25404)"
       y2="329.99258"
       x2="-113.08898"
       y1="792.5401"
       x1="-380.64099"
       gradientUnits="userSpaceOnUse"
       id="linearGradient1888"
       xlink:href="#linearGradient1259"
       inkscape:collect="always" />
    <linearGradient
       gradientTransform="matrix(0.99572866,0,0,1.0057288,-2.0734612,-529.25404)"
       y2="329.99258"
       x2="-113.08898"
       y1="792.5401"
       x1="-380.64099"
       gradientUnits="userSpaceOnUse"
       id="linearGradient1890"
       xlink:href="#linearGradient1259"
       inkscape:collect="always" />
    <linearGradient
       gradientTransform="matrix(0.99572866,0,0,1.0057288,-2.0734612,-529.25404)"
       y2="329.99258"
       x2="-113.08898"
       y1="792.5401"
       x1="-380.64099"
       gradientUnits="userSpaceOnUse"
       id="linearGradient1892"
       xlink:href="#linearGradient1259"
       inkscape:collect="always" />
    <linearGradient
       gradientUnits="userSpaceOnUse"
       y2="-139.09525"
       x2="148.16667"
       y1="-501.19644"
       x1="-95.25"
       id="linearGradient2043"
       xlink:href="#linearGradient2041"
       inkscape:collect="always" />
  </defs>
  <sodipodi:namedview
     inkscape:window-maximized="1"
     inkscape:window-y="-8"
     inkscape:window-x="-8"
     inkscape:window-height="1017"
     inkscape:window-width="1920"
     units="px"
     showgrid="false"
     inkscape:document-rotation="0"
     inkscape:current-layer="layer1"
     inkscape:document-units="mm"
     inkscape:cy="260.44396"
     inkscape:cx="400"
     inkscape:zoom="0.35"
     inkscape:pageshadow="2"
     inkscape:pageopacity="0.0"
     borderopacity="1.0"
     bordercolor="#666666"
     pagecolor="#ffffff"
     id="base" />
  <metadata
     id="metadata1192">
    <rdf:RDF>
      <cc:Work
         rdf:about="">
        <dc:format>image/svg+xml</dc:format>
        <dc:type
           rdf:resource="http://purl.org/dc/dcmitype/StillImage" />
        <dc:title></dc:title>
      </cc:Work>
    </rdf:RDF>
  </metadata>
  <g
     id="layer1"
     inkscape:groupmode="layer"
     inkscape:label="Layer 1">
    <text
       id="text1253"
       y="207.43202"
       x="34.90028"
       style="font-style:normal;font-variant:normal;font-weight:normal;font-stretch:normal;font-size:52.7778px;line-height:1.25;font-family:ChicaGogoNFW01-Bold;-inkscape-font-specification:ChicaGogoNFW01-Bold;fill:#000080;fill-opacity:1;stroke:none;stroke-width:1.31945;"
       xml:space="preserve"><tspan
         style="font-style:normal;font-variant:normal;font-weight:normal;font-stretch:normal;font-family:ChicaGogoNFW01-Bold;-inkscape-font-specification:ChicaGogoNFW01-Bold;stroke-width:1.31945;fill:#000080;"
         y="207.43202"
         x="34.90028"
         id="tspan1251"
         sodipodi:role="line">GEINF</tspan></text>
    <g
       transform="matrix(0.33680556,0,0,0.33680556,186.88467,72.271353)"
       id="g2053">
      <path
         id="path230-8-0-3"
         style="fill:url(#linearGradient1874);fill-opacity:1;stroke-width:0.360997"
         d="M -251.70534,-206.88209 A 25.592596,25.849623 0 0 0 -276.4314,-187.61311 221.67704,223.90335 0 0 0 -468.46464,34.278696 221.67704,223.90335 0 0 0 -246.78822,258.18298 221.67704,223.90335 0 0 0 -27.303361,65.678674 H -31.15557 -46.325182 -275.41433 a 25.968928,26.229735 0 0 0 -24.29083,-16.954087 25.968928,26.229735 0 0 0 -0.0108,0 25.968928,26.229735 0 0 0 -25.95766,26.229259 25.968928,26.229735 0 0 0 25.96846,26.229254 25.968928,26.229735 0 0 0 23.70282,-15.5137 H -50.413549 A 202.85896,204.89628 0 0 1 -246.78824,239.17588 202.85896,204.89628 0 0 1 -382.49373,186.57707 c 4.18772,-2.93957 8.28304,-6.01758 12.34528,-9.12864 2.53252,-2.12385 5.35318,-3.89265 7.60873,-6.34298 1.53941,-1.67232 2.16098,-2.66901 3.471,-4.51444 3.07813,-4.1679 5.30398,-8.8692 7.547,-13.5246 2.1741,-4.64319 4.06752,-9.40244 5.7814,-14.23545 1.01333,-3.51865 2.46128,-6.86008 3.92938,-10.19957 1.78464,-3.48104 3.50361,-7.0544 6.12093,-9.98913 0.0807,0.0147 0.15506,0.0321 0.20218,0.0592 0.0544,0.0313 -0.23781,-0.008 -0.18674,0.0281 0.25475,0.18199 0.56732,0.26621 0.83186,0.43337 0.0415,0.0262 -0.0976,-1.1e-4 -0.14661,-0.003 0.53319,0.32749 1.0657,0.65617 1.59891,0.98364 0.91381,1.51926 3.46416,2.95228 4.18557,4.18552 3.28799,3.7544 6.81642,7.23866 10.52104,10.57214 3.66612,3.13102 7.21099,6.50846 11.18931,9.24711 2.81919,1.94072 5.02634,3.10513 7.98068,4.77478 6.14689,3.32432 12.65806,5.83096 19.48483,7.24398 1.95449,0.37879 3.93663,0.50863 5.91876,0.62042 13.01867,0.68007 13.97092,-17.91701 0.95224,-18.59711 -1.09722,-0.0496 -2.19448,-0.10124 -3.27962,-0.28839 -4.95706,-0.93916 -9.62641,-2.91991 -14.09852,-5.24242 -0.40387,-0.22654 -4.96156,-2.75437 -5.72276,-3.27515 -3.62093,-2.47731 -6.83875,-5.55408 -10.17069,-8.39442 -3.39685,-3.04836 -6.59965,-6.25162 -9.60892,-9.69451 -2.5578,-2.50095 -5.05389,-5.13899 -7.98994,-7.19411 -1.47666,-0.77799 1.32347,0.7153 -2.40763,-1.51053 -2.70799,-1.61548 -5.71379,-2.46893 -8.83106,-2.756047 -6.22154,0.431217 -9.98613,2.071957 -14.40566,6.670327 -3.65382,4.43149 -6.56928,9.3464 -8.98849,14.5706 -1.65099,3.75801 -3.2692,7.52948 -4.43559,11.47784 -1.48906,4.20125 -3.1198,8.3399 -5.00818,12.37729 -1.79629,3.74521 -3.5364,7.5557 -6.01445,10.90417 -0.55455,0.80988 -1.15742,1.9305 -1.90913,2.62044 -1.65054,1.51493 -3.59455,2.66299 -5.26283,4.15746 -4.77005,3.65806 -9.59625,7.25662 -14.56617,10.63293 A 202.85896,204.89628 0 0 1 -449.6481,34.27864 202.85896,204.89628 0 0 1 -447.10311,1.9308802 c 0.80857,0.7797996 1.60754,1.5703421 2.37213,2.3975188 2.59511,3.2110396 5.11914,6.482554 7.47137,9.878449 1.69755,2.596876 3.63321,5.055596 4.87699,7.923654 2.38712,4.244126 4.98142,8.385062 7.86647,12.302465 2.95527,4.07414 6.16355,7.96305 8.8712,12.219851 2.71694,3.887018 5.53473,7.693927 8.38658,11.480947 2.04344,2.654191 4.34247,5.065757 6.52375,7.600969 2.59813,2.573037 5.37982,4.921063 8.19984,7.243989 4.61484,3.789422 9.53107,6.957322 15.75917,6.536267 4.95596,-0.720282 9.69306,-2.283481 14.18342,-4.540936 3.75311,-2.186301 6.17573,-4.556308 8.29089,-8.339864 2.09492,-3.672488 3.24953,-7.601384 3.05893,-11.872224 0.004,-2.758953 0.0126,-5.518553 0.0123,-8.277506 -0.008,-3.111648 -0.008,-6.229179 -0.28243,-9.331297 -0.35966,-3.464646 -0.90049,-6.920617 -2.01408,-10.230752 -0.77346,-2.750773 -1.93914,-5.294462 -2.89223,-7.97353 -0.90059,-2.708846 -2.16579,-5.246413 -3.02806,-7.967296 -0.70713,-1.7743444 -1.48176,-3.5234442 -2.27028,-5.2611308 1.30714,0.011413 2.57266,0.052677 3.00337,-0.035836 4.18102,-0.1719417 8.35028,-0.4916417 12.50888,-0.9680471 3.23241,-0.3636213 6.53118,-0.085153 9.73701,-0.7809889 3.63504,-0.7990824 7.02899,-2.1300007 10.31114,-3.90180739 3.05957,-1.60430261 6.02849,-3.34004971 8.86811,-5.32036861 3.53044,-2.2684209 7.03203,-4.5826944 9.47464,-8.1185022 2.52156,-3.619995 4.79848,-7.434495 7.80628,-10.682823 2.04222,-2.449988 4.30831,-4.662859 6.56542,-6.911949 2.12619,-1.879291 0.90062,-0.752839 2.39683,-2.193309 0.17952,-0.172851 0.68378,-0.361442 0.51394,-0.544039 -0.0416,-0.04462 -0.23591,0.03576 -0.18212,0.0064 0.26461,-0.140263 0.55147,-0.232743 0.82724,-0.349183 2.2979,-0.961678 4.38278,-2.203636 6.50369,-3.482476 2.04699,-1.018569 4.28985,-1.720096 6.35244,-2.833994 1.15218,-0.700808 3.56511,-1.781624 5.66102,-3.02885 3.54375,-2.774333 6.58614,-5.859076 7.17659,-10.651639 0.11522,-4.135022 -0.37839,-8.202929 -2.18384,-11.979789 -1.10448,-2.083421 -2.38051,-4.047993 -3.68553,-6.00626 -2.29998,-3.378942 -5.11581,-6.140649 -8.81718,-7.957941 -4.29288,-1.696727 -8.77425,-2.643001 -13.25123,-3.713193 -1.69069,-0.306635 -3.20944,-1.136286 -4.8631,-1.588468 -2.70666,-1.108949 -5.55735,-1.910506 -8.48073,-2.135627 -2.02839,-0.230469 -3.95541,-0.785874 -5.86165,-1.532359 -1.41302,-0.3745 -2.82688,-0.818565 -4.13773,-1.451285 -2.11357,-1.047206 -4.2709,-2.004742 -6.43887,-2.930647 -1.70944,-0.80538 -2.41822,-0.85073 -3.50804,-1.865947 0.01,-2.779058 0.0292,-5.559336 -0.002,-8.338306 -0.0799,-3.80753 -0.21647,-7.65694 -1.31186,-11.33129 -1.36702,-3.99557 -3.24441,-7.85121 -6.32311,-10.80754 -1.77897,-1.67935 -4.05482,-3.89104 -6.89262,-5.15356 -1.83788,-0.89291 -3.61619,-2.04448 -5.51903,-2.84803 -1.70673,-0.61888 -3.48607,-0.97379 -5.06682,-1.89089 -1.96041,-0.93433 -3.97547,-1.73384 -6.03143,-2.4131 a 202.85896,204.89628 0 0 1 82.37338,-30.71719 25.592596,25.849623 0 0 0 22.51289,13.55422 25.592596,25.849623 0 0 0 25.59188,-25.8489 25.592596,25.849623 0 0 0 -25.59188,-25.8489 25.592596,25.849623 0 0 0 -0.0247,0 z m -126.1367,84.76263 c 0.434,0.0462 0.87981,0.078 1.34735,0.078 3.9088,0.11885 7.88236,0.28633 11.74646,0.94155 1.74501,0.86021 4.40978,0.93667 5.95117,2.14031 2.062,1.23483 4.37801,1.83117 6.61481,2.6064 -0.003,0.005 -7.9e-4,0.0117 0.0154,0.0281 0.37764,0.37634 3.9749,2.11137 4.63623,2.43025 0.16738,0.13625 0.2101,0.16537 0.3241,0.25565 0.28755,0.28414 0.36436,0.37463 1.07726,1.04755 0.12571,0.11855 0.24425,0.24631 0.36578,0.36945 0.55949,0.5466 1.11361,1.59365 1.51094,3.1177 0.3459,1.94422 0.36072,3.93758 0.39819,5.90806 0.026,2.76754 0.005,5.534844 -0.003,8.302449 0.26646,5.842483 1.96898,9.402881 6.05457,13.449781 2.20757,2.347253 5.17229,3.474041 7.96062,4.883886 1.97272,0.801597 3.9329,1.765749 5.82616,2.620438 2.43323,1.262637 5.06913,2.112002 7.69207,2.877643 2.74251,1.111416 5.63467,1.692257 8.55172,2.081067 1.66197,0.0241 3.10051,0.603229 3.81208,0.899456 2.64078,0.916312 4.71084,1.734406 7.61027,2.475456 3.32631,1.231695 7.23918,1.094504 10.40374,2.784111 -0.79214,-0.174352 -0.30156,-0.127606 0.1173,0.314895 0.0782,0.08265 -0.20025,-0.104962 -0.30095,-0.157448 0.27984,0.265459 0.57094,0.519681 0.83958,0.796577 0.14502,0.149618 -0.32145,-0.26787 -0.46455,-0.419331 0.74927,1.401369 1.92144,2.618681 2.65611,4.034305 -1.17709,0.56278 -2.30549,1.217823 -3.42624,1.895565 -1.57545,0.385969 -3.40929,1.297996 -5.0051,2.091986 -1.77378,0.565062 -3.19631,2.434552 -4.97577,2.807496 -3.62654,1.192354 -6.21129,3.967493 -9.01935,6.394408 -2.98027,2.858288 -5.88885,5.780093 -8.55172,8.94314 -3.38595,3.632095 -5.92922,7.91778 -8.78477,11.954847 -1.18184,1.403453 -2.741,2.167649 -4.27817,3.139527 -2.4054,1.693015 -4.9133,3.173392 -7.50995,4.534703 -1.78697,0.772696 -3.44544,1.925591 -5.40946,2.16369 -2.59245,0.292004 -5.19947,0.287918 -7.79856,0.498833 -3.8561,0.439994 -7.72129,0.751569 -11.5983,0.907253 -4.73451,-0.07455 -8.30662,0.22983 -12.84841,1.845682 -7.50329,4.013059 -9.43695,8.7048024 -8.55944,17.1614095 0.59988,4.2051535 2.78744,7.8703545 4.2828,11.7677805 0.59292,2.386018 1.9466,4.478474 2.62216,6.827778 0.59121,2.464594 2.09295,4.61798 2.62988,7.080307 0.82918,2.350301 1.23962,4.800241 1.47544,7.273615 0.1935,2.49355 0.1822,4.997173 0.18829,7.496517 6e-5,2.734491 -0.009,5.469771 -0.0123,8.204246 0.27939,-0.616223 -0.0347,1.109787 -0.19446,1.900242 -0.21873,0.0056 -0.23036,0.410408 -0.3488,0.60951 -0.84086,1.157165 0.19834,-0.28301 -0.71303,1.10523 -0.26036,-0.03089 -0.48,0.278054 -0.72075,0.408421 -2.18422,0.558286 -4.91196,2.478042 -7.20591,2.255658 0.0412,-0.196588 0.62613,-0.17582 0.54326,-0.358537 -0.35195,-0.775952 -1.72557,-1.358047 -2.38911,-1.961036 -2.43868,-2.026243 -4.87247,-4.028351 -7.11949,-6.25412 -1.46636,-1.962002 -3.33843,-3.573479 -4.75507,-5.574454 -2.7219,-3.612796 -5.4103,-7.243701 -8.00229,-10.952504 -2.72677,-4.348833 -6.05234,-8.262717 -9.02089,-12.431851 -2.46247,-3.349627 -4.70738,-6.874053 -6.72903,-10.512908 -1.41745,-3.2406342 -3.61293,-6.0324226 -5.51594,-8.9821056 -2.67294,-3.93077163 -5.59898,-7.6776216 -8.56252,-11.3874223 -1.8793,-2.4941008 -4.49337,-4.3073941 -6.54844,-6.6173341 -1.40113,-1.331054 -2.90169,-2.536442 -4.44178,-3.696041 -0.45958,-0.335511 -0.91953,-0.611912 -1.37821,-0.863603 a 202.85896,204.89628 0 0 1 64.93812,-103.542133 z m 52.42153,27.025832 c 0.18715,0.312852 0.40056,0.709508 0.34108,0.95558 -0.0376,0.155652 -0.0405,-0.383271 -0.18829,-0.441159 -0.18702,-0.07327 0.14928,1.558418 -0.15433,-0.260327 2.6e-4,-0.08471 0.002,-0.169388 0.002,-0.254094 z m 42.88823,39.241009 c 0.076,0.641044 0.10543,1.070958 -0.0432,0.37256 0.0247,-0.195343 0.0258,-0.225313 0.0432,-0.37256 z m -81.94895,61.6775727 c -0.2978,0.2198457 -0.63986,0.3783149 -1.05874,0.4208873 0.0973,-0.2139315 0.49806,-0.3428219 1.05874,-0.4208873 z m -6.73211,52.9511173 c -0.0695,0.104156 -0.065,0.100668 -0.14816,0.224475 -0.0537,0.07984 -0.20616,0.300536 -0.20063,0.20421 0.008,-0.145564 0.17657,-0.292564 0.34879,-0.428685 z m 36.51574,59.423479 c 0.25839,-0.022 0.28045,0.0656 -0.46301,0.25721 -0.0896,0.004 -0.18708,-0.0138 -0.28243,-0.0265 0.23593,-0.13797 0.55475,-0.21448 0.74544,-0.23071 z" />
      <path
         d="m -278.05987,104.97264 c -5.09747,0 -9.20131,4.14509 -9.20131,9.29373 v 1.94013 c 0,5.14867 4.10384,9.29372 9.20131,9.29372 h 99.7582 v 41.84719 h 2.63453 17.68894 13.74534 a 25.968929,26.229736 0 0 0 24.2588,16.86768 25.968929,26.229736 0 0 0 25.968165,-26.22947 25.968929,26.229736 0 0 0 -25.968165,-26.22946 25.968929,26.229736 0 0 0 -23.49826,15.06368 h -14.50588 v -30.61334 -1.94013 -9.29373 h -9.20132 z m 158.08581,43.86321 a 9.0589325,9.1499116 0 0 1 9.05827,9.15028 9.0589325,9.1499116 0 0 1 -9.05827,9.14923 9.0589325,9.1499116 0 0 1 -9.05928,-9.11544 v 0 a 9.0589325,9.1499116 0 0 1 0,-0.0338 9.0589325,9.1499116 0 0 1 9.05928,-9.14976 z"
         style="fill:url(#linearGradient1876);fill-opacity:1;stroke-width:0.198604"
         id="rect168-3-0-5-3" />
      <path
         d="m -178.92069,-157.16925 c -14.34225,1.8e-4 -25.96879,11.74373 -25.96865,26.23 v 0.009 c 0.004,10.96983 6.76703,20.77822 16.95208,24.58714 v 84.583658 h -8.47116 -79.99664 -11.21941 c -4.69301,0 -8.47115,3.816075 -8.47115,8.556244 v 1.786289 c 0,4.740139 3.77814,8.5562138 8.47115,8.5562138 h 33.02685 l 87.5591,0.4672357 V -21.759372 -107.61792 c 8.64988,-4.49562 14.08682,-13.49707 14.08703,-23.32266 1.2e-4,-14.48627 -11.62643,-26.22984 -25.96867,-26.22999 z m 0,17.07973 c 5.00319,6e-5 9.059,4.09683 9.05879,9.15027 -8e-5,5.05326 -4.05578,9.14966 -9.05879,9.14975 -4.98995,-6e-5 -9.04023,-4.07595 -9.05875,-9.11597 -3e-5,-0.0121 -3e-5,-0.0211 0,-0.0338 -2.2e-4,-5.05341 4.05556,-9.15018 9.05875,-9.15027 z"
         style="fill:url(#linearGradient1878);fill-opacity:1;stroke-width:0.268667"
         id="path68-2-3-9-0-2-5" />
      <path
         d="m -82.533328,-63.109444 c -14.342258,1.51e-4 -25.968812,11.743697 -25.968682,26.229994 v 0.0091 c 0.004,10.969858 6.76703,20.778248 16.952079,24.587143 l 1.150048,27.660269 H -221.44934 c -0.26623,-0.02413 -0.53497,-0.03741 -0.80734,-0.03741 h -89.75573 c -5.09746,0 -9.20131,4.145062 -9.20131,9.293734 v 1.940104 c 0,5.148672 4.10385,9.293734 9.20131,9.293734 h 6.05325 v 0.03801 H -69.501163 V 15.377072 l -1.150026,-28.935129 c 8.649905,-4.495616 14.086843,-13.497105 14.087022,-23.32266 1.37e-4,-14.486267 -11.626429,-26.229843 -25.968654,-26.229994 z m 0,17.079698 c 5.003186,9.1e-5 9.05897,4.096857 9.05876,9.150296 -8e-5,5.053229 -4.055783,9.149693 -9.05876,9.149754 -4.989956,-6.1e-5 -9.040292,-4.075952 -9.058782,-9.115968 -3e-5,-0.01207 -3e-5,-0.02112 0,-0.03379 -2.09e-4,-5.053409 4.055592,-9.150175 9.058782,-9.150266 z"
         style="fill:url(#linearGradient1880);fill-opacity:1;stroke-width:0.268667"
         id="path68-2-3-9-8-0-3-2" />
      <path
         id="rect168-3-3-2-0-9-0-1"
         style="fill:url(#linearGradient2043);fill-opacity:1;stroke-width:0.103053"
         transform="rotate(-90)"
         d="m 108.78465,-306.62869 h 25.92918 c 4.31704,0 7.7925,3.47545 7.7925,7.7925 v 1.62701 c 0,4.31705 -3.47546,7.7925 -7.7925,7.7925 h -25.92918 c -4.31705,0 -7.7925,-3.47545 -7.7925,-7.7925 v -1.62701 c 0,-4.31705 3.47545,-7.7925 7.7925,-7.7925 z m -11.392532,24.0617 h 37.321702 c 4.31705,0 7.7925,3.47546 7.7925,7.7925 v 1.62702 c 0,4.31705 -3.47545,7.7925 -7.7925,7.7925 H 97.392118 c -4.317046,0 -7.792501,-3.47545 -7.792501,-7.7925 v -1.62702 c 0,-4.31704 3.475455,-7.7925 7.792501,-7.7925 z m -22.751228,23.53485 h 60.07294 c 4.31705,0 7.7925,3.47546 7.7925,7.79251 v 1.62701 c 0,4.31705 -3.47545,7.7925 -7.7925,7.7925 H 74.64089 c -4.317046,0 -7.792501,-3.47545 -7.792501,-7.7925 v -1.62701 c 0,-4.31705 3.475455,-7.79251 7.792501,-7.79251 z" />
      <rect
         y="159.49669"
         x="-310.29446"
         height="17.384878"
         width="52.38065"
         id="rect168-3-3-2-6-5-3-1"
         style="fill:url(#linearGradient1888);fill-opacity:1;stroke-width:0.116337"
         ry="7.8707614" />
      <rect
         ry="7.8707614"
         style="fill:url(#linearGradient1890);fill-opacity:1;stroke-width:0.11058"
         id="rect168-3-3-2-6-4-4-3-5"
         width="47.324429"
         height="17.384878"
         x="-284.31384"
         y="181.92236" />
      <rect
         y="203.82089"
         x="-306.83197"
         height="17.384878"
         width="47.713371"
         id="rect168-3-3-2-6-4-9-6-9-4"
         style="fill:url(#linearGradient1892);fill-opacity:1;stroke-width:0.111033"
         ry="7.8707614" />
    </g>
  </g>
</svg>
