<?xml version="1.0" encoding="UTF-8" standalone="no"?>
<svg
   xmlns:dc="http://purl.org/dc/elements/1.1/"
   xmlns:cc="http://creativecommons.org/ns#"
   xmlns:rdf="http://www.w3.org/1999/02/22-rdf-syntax-ns#"
   xmlns:svg="http://www.w3.org/2000/svg"
   xmlns="http://www.w3.org/2000/svg"
   xmlns:sodipodi="http://sodipodi.sourceforge.net/DTD/sodipodi-0.dtd"
   xmlns:inkscape="http://www.inkscape.org/namespaces/inkscape"
   width="612"
   height="612"
   viewBox="0 0 161.925 161.925"
   version="1.1"
   id="svg52"
   inkscape:version="1.0 (4035a4fb49, 2020-05-01)"
   sodipodi:docname="logosys_w.svg">
  <defs
     id="defs46" />
  <sodipodi:namedview
     id="base"
     pagecolor="#ffffff"
     bordercolor="#666666"
     borderopacity="1.0"
     inkscape:pageopacity="0.0"
     inkscape:pageshadow="2"
     inkscape:zoom="0.5"
     inkscape:cx="728.02734"
     inkscape:cy="643.09961"
     inkscape:document-units="mm"
     inkscape:current-layer="layer1"
     inkscape:document-rotation="0"
     showgrid="false"
     units="px"
     inkscape:window-width="1920"
     inkscape:window-height="1017"
     inkscape:window-x="-8"
     inkscape:window-y="-8"
     inkscape:window-maximized="1" />
  <metadata
     id="metadata49">
    <rdf:RDF>
      <cc:Work
         rdf:about="">
        <dc:format>image/svg+xml</dc:format>
        <dc:type
           rdf:resource="http://purl.org/dc/dcmitype/StillImage" />
        <dc:title></dc:title>
      </cc:Work>
    </rdf:RDF>
  </metadata>
  <g
     inkscape:label="Layer 1"
     inkscape:groupmode="layer"
     id="layer1">
    <path
       style="fill:#ffffff;fill-opacity:1;stroke:none;stroke-width:0.197152"
       d="M 34.545918,18.084403 C 27.178731,23.766724 20.617111,30.340179 15.558577,38.19394 0.63730031,61.360121 -1.2096169,91.373587 11.138027,116.06908 c 3.995886,7.99177 9.422103,14.99798 15.718952,21.29245 6.366638,6.36409 14.226506,11.51903 22.47536,15.09793 22.958392,9.95817 49.725348,8.65892 71.369121,-4.05523 4.33576,-2.5468 8.40597,-5.52027 12.22344,-8.791 1.63576,-1.40157 4.01185,-3.24259 4.9288,-5.20897 -7.05076,-4.40558 -13.6942,-9.97789 -20.30666,-15.02223 -1.82229,-1.39012 -3.70647,-2.69704 -5.52028,-4.09938 -0.67209,-0.51969 -1.67599,-1.58157 -2.56297,-1.63638 -1.3645,-0.0841 -3.60277,2.39304 -4.73166,3.14578 -3.38846,2.25897 -7.136524,4.07099 -11.040536,5.2468 -18.01911,5.42701 -36.937249,-1.5228 -47.958271,-16.63354 C 36.199635,92.333913 35.905675,74.24245 43.478694,60.275 c 1.877476,-3.462982 4.332028,-6.648369 7.070076,-9.472975 0.762981,-0.787228 3.214574,-2.222297 3.257755,-3.359474 0.02757,-0.724138 -0.813651,-1.577223 -1.183309,-2.151129 C 51.431614,43.441344 50.225438,41.592058 48.988308,39.771159 45.98627,35.352383 43.031751,30.864604 40.151946,26.3648 38.451509,23.707775 36.811397,20.278906 34.545918,18.084403"
       id="path105" />
    <path
       style="fill:#ffffff;fill-opacity:1;stroke:none;stroke-width:0.197152"
       d="m 77.919425,45.291422 c 0,1.181928 0.438069,3.457065 -0.202672,4.47969 -0.529945,0.845787 -2.257394,1.066008 -3.148912,1.320728 -2.229399,0.637192 -4.543179,1.355818 -6.506025,2.617591 -4.380924,2.81652 -7.059234,7.676324 -7.28695,12.874437 -0.48736,11.131213 9.23619,15.151935 17.736016,19.166934 3.724392,1.759193 8.600166,3.192093 9.826454,7.645766 2.192723,7.963962 -6.431303,12.648502 -13.178039,9.598752 -3.835404,-1.73376 -4.628541,-5.071744 -5.323111,-8.810147 H 58.992813 c 0,2.865013 0.09089,5.64289 1.376315,8.280397 2.893605,5.93684 10.503484,9.21214 16.76169,10.05476 v 4.53452 h 5.717403 c 0,-1.11411 -0.42368,-3.32183 0.202679,-4.27546 0.494261,-0.75252 2.145407,-0.76672 2.951755,-0.92937 2.094551,-0.42211 4.251985,-1.11037 6.111726,-2.174 4.46116,-2.55194 7.313955,-6.75385 7.671393,-11.942105 0.116711,-1.69689 0.190451,-3.646921 -0.103698,-5.323111 C 98.216052,84.055893 91.191317,81.079682 84.228296,77.882463 80.269473,76.064725 74.07792,74.329787 72.602039,69.73831 c -2.339605,-7.27926 5.674036,-13.951877 12.217713,-9.338513 2.575392,1.81577 3.615178,4.913625 3.745892,7.958442 h 11.040524 c 0,-9.690228 -6.393646,-16.454329 -15.969328,-17.743709 l -0.197151,-5.520259 -5.520261,0.197151"
       id="path158" />
    <path
       style="fill:#ffffff;fill-opacity:1;stroke:none;stroke-width:0.197152"
       d="m 117.54704,104.04279 c 7.04009,5.05715 13.96408,10.30082 20.89812,15.50149 l 5.12596,3.84447 c 0.52837,0.39609 1.40116,1.31758 2.13222,1.18114 1.07978,-0.20148 2.30034,-3.074 2.82399,-3.96631 2.51192,-4.28076 4.36712,-8.68575 6.09221,-13.32277 5.77261,-15.507201 6.19255,-33.378452 1.24205,-49.174488 -1.05476,-3.364407 -2.34412,-6.623923 -3.74392,-9.857616 -0.47119,-1.084139 -1.04097,-3.058028 -1.9794,-3.813321 -0.62635,-0.504511 -1.51334,0.319981 -2.03264,0.648439 -1.66082,1.050428 -3.29343,2.140482 -4.92882,3.230535 -5.5656,3.710208 -11.18424,7.342933 -16.75793,11.040524 -1.34656,0.893105 -5.2825,2.53183 -5.77499,4.110824 -0.36118,1.157684 1.14447,3.538488 1.49283,4.695381 1.04293,3.462782 1.89858,7.211831 1.91612,10.843366 0.0294,6.102448 -0.73635,11.804092 -2.89477,17.546547 -0.96507,2.56712 -2.84945,4.902579 -3.61103,7.491789"
       id="path156" />
    <path
       style="fill:#ffffff;fill-opacity:1;stroke:none;stroke-width:0.197152"
       d="m 45.192141,11.381226 6.139125,9.463311 13.378958,20.306687 c 3.320638,-0.908277 6.412578,-2.165913 9.857617,-2.675948 8.955241,-1.325453 17.629145,0.279955 25.826939,3.999432 3.58916,1.628278 6.9922,4.305614 9.85761,6.974459 0.76949,0.71685 2.4575,3.215165 3.56629,3.170798 0.79393,-0.03173 1.71423,-0.926416 2.34829,-1.348322 1.83193,-1.218992 3.6686,-2.435617 5.52025,-3.624252 7.21774,-4.633669 14.37871,-9.387998 21.48959,-14.185109 C 127.19978,12.097086 100.01742,0.60803586 73.582078,3.1343444 63.404288,4.1068969 54.542294,7.54543 45.192141,11.381226"
       id="path56" />
    <path
       id="path105-6"
       d="m 34.016762,18.084401 c -7.36719,5.68232 -13.92881,12.25578 -18.98735,20.10954 -14.92126967,23.16618 -16.7681897,53.17965 -4.42055,77.875139 3.99589,7.99177 9.42211,14.99798 15.71895,21.29245 6.36664,6.36409 14.22651,11.51903 22.47536,15.09793 22.9584,9.95817 49.72535,8.65892 71.369128,-4.05523 4.33576,-2.5468 8.40597,-5.52027 12.22344,-8.791 1.63576,-1.40157 4.01185,-3.24259 4.9288,-5.20897 -7.05076,-4.40558 -13.6942,-9.97789 -20.30666,-15.02223 -1.82229,-1.39012 -3.70647,-2.69704 -5.52028,-4.09938 -0.67209,-0.51969 -1.67599,-1.58157 -2.56297,-1.63638 -1.3645,-0.0841 -3.60277,2.39304 -4.73166,3.14578 -3.38846,2.25897 -7.136528,4.07099 -11.040538,5.2468 -18.01911,5.42701 -36.93725,-1.5228 -47.95827,-16.63354 -9.53369,-13.071399 -9.82765,-31.162859 -2.25463,-45.130309 1.87748,-3.46298 4.33203,-6.64837 7.07008,-9.47297 0.76298,-0.78723 3.21457,-2.2223 3.25775,-3.35948 0.0276,-0.72414 -0.81365,-1.57722 -1.18331,-2.15113 -1.1916,-1.85008 -2.39778,-3.69936 -3.6349,-5.52026 -3.00204,-4.41878 -5.95656,-8.90656 -8.83637,-13.40636 -1.70044,-2.65702 -3.34055,-6.08589 -5.60602,-8.2804"
       style="fill:#ffffff;fill-opacity:1;stroke:none;stroke-width:0.197152" />
    <path
       id="path158-7"
       d="m 77.390262,45.291421 c 0,1.18193 0.43807,3.45707 -0.20267,4.47969 -0.52994,0.84579 -2.2574,1.06601 -3.14891,1.32073 -2.2294,0.63719 -4.54318,1.35582 -6.50603,2.61759 -4.38092,2.81652 -7.05923,7.67633 -7.28695,12.87444 -0.48736,11.13121 9.23619,15.15193 17.73602,19.16693 3.72439,1.7592 8.60017,3.1921 9.82645,7.64577 2.19273,7.963959 -6.4313,12.648499 -13.17804,9.598749 -3.8354,-1.73376 -4.62854,-5.071739 -5.32311,-8.810149 h -10.84337 c 0,2.86502 0.0909,5.64289 1.37631,8.280399 2.89361,5.93684 10.50349,9.21214 16.76169,10.05476 v 4.53452 h 5.71741 c 0,-1.11411 -0.42368,-3.32183 0.20268,-4.27546 0.49426,-0.75252 2.1454,-0.76672 2.95175,-0.92937 2.09455,-0.42211 4.25199,-1.11037 6.11173,-2.174 4.46116,-2.55194 7.31395,-6.75385 7.67139,-11.942099 0.11671,-1.69689 0.19045,-3.64693 -0.1037,-5.32311 -1.46602,-8.35492 -8.49076,-11.33113 -15.45378,-14.52835 -3.95882,-1.81773 -10.15037,-3.55267 -11.62625,-8.14415 -2.33961,-7.27926 5.67403,-13.95188 12.21771,-9.33851 2.57539,1.81577 3.61518,4.91362 3.74589,7.95844 h 11.04053 c 0,-9.69023 -6.39365,-16.45433 -15.96933,-17.74371 l -0.19716,-5.52026 -5.52026,0.19715"
       style="fill:#ffffff;fill-opacity:1;stroke:none;stroke-width:0.197152" />
    <path
       id="path156-5"
       d="m 117.01788,104.04279 c 7.04009,5.05715 13.96408,10.30082 20.89812,15.50149 l 5.12596,3.84447 c 0.52837,0.39609 1.40116,1.31758 2.13222,1.18114 1.07978,-0.20148 2.30034,-3.074 2.82399,-3.96631 2.51192,-4.28076 4.36712,-8.68575 6.09221,-13.32277 5.77261,-15.507199 6.19255,-33.378449 1.24205,-49.174489 -1.05476,-3.3644 -2.34412,-6.62392 -3.74392,-9.85761 -0.47119,-1.08414 -1.04097,-3.05803 -1.9794,-3.81332 -0.62635,-0.50452 -1.51334,0.31998 -2.03264,0.64844 -1.66082,1.05042 -3.29343,2.14048 -4.92882,3.23053 -5.5656,3.71021 -11.18424,7.34293 -16.75793,11.04052 -1.34656,0.89311 -5.2825,2.53183 -5.77499,4.11083 -0.36118,1.15768 1.14447,3.53849 1.49283,4.69538 1.04293,3.46278 1.89858,7.21183 1.91612,10.84337 0.0294,6.10244 -0.73635,11.80409 -2.89477,17.54654 -0.96507,2.56712 -2.84945,4.902579 -3.61103,7.491789"
       style="fill:#ffffff;fill-opacity:1;stroke:none;stroke-width:0.197152" />
    <path
       id="path56-0"
       d="m 44.662982,11.381231 6.13912,9.46331 13.37896,20.30669 c 3.32064,-0.90828 6.41258,-2.16592 9.85762,-2.67595 8.95524,-1.32546 17.62914,0.27995 25.826941,3.99943 3.589157,1.62828 6.992197,4.30561 9.857607,6.97446 0.76949,0.71685 2.4575,3.21516 3.56629,3.1708 0.79393,-0.0317 1.71423,-0.92642 2.34829,-1.34833 1.83193,-1.21899 3.6686,-2.43561 5.52025,-3.62425 7.21774,-4.63367 14.37871,-9.388 21.48959,-14.18511 -15.97703,-21.36519 -43.159387,-32.85424 -69.594738,-30.32794 -10.17779,0.97256 -19.03978,4.41109 -28.38993,8.24689"
       style="fill:#ffffff;fill-opacity:1;stroke:none;stroke-width:0.197152" />
  </g>
</svg>
