<?xml version="1.0" encoding="UTF-8" standalone="no"?>
<svg
   xmlns:dc="http://purl.org/dc/elements/1.1/"
   xmlns:cc="http://creativecommons.org/ns#"
   xmlns:rdf="http://www.w3.org/1999/02/22-rdf-syntax-ns#"
   xmlns:svg="http://www.w3.org/2000/svg"
   xmlns="http://www.w3.org/2000/svg"
   xmlns:xlink="http://www.w3.org/1999/xlink"
   xmlns:sodipodi="http://sodipodi.sourceforge.net/DTD/sodipodi-0.dtd"
   xmlns:inkscape="http://www.inkscape.org/namespaces/inkscape"
   width="800"
   height="800"
   viewBox="0 0 211.66666 211.66667"
   version="1.1"
   id="svg1195"
   inkscape:version="1.0 (4035a4fb49, 2020-05-01)"
   sodipodi:docname="logo_andreney.svg"
   inkscape:export-filename="D:\Pictures\inksacape\logo_geinf.png"
   inkscape:export-xdpi="52.34"
   inkscape:export-ydpi="52.34">
  <defs
     id="defs1189">
    <linearGradient
       id="linearGradient347"
       inkscape:collect="always">
      <stop
         id="stop343"
         offset="0"
         style="stop-color:#0596df;stop-opacity:1;" />
      <stop
         id="stop345"
         offset="1"
         style="stop-color:#0596df;stop-opacity:0;" />
    </linearGradient>
    <linearGradient
       gradientUnits="userSpaceOnUse"
       y2="229.80952"
       x2="233.58928"
       y1="21.166666"
       x1="15.875"
       id="linearGradient349"
       xlink:href="#linearGradient347"
       inkscape:collect="always" />
  </defs>
  <sodipodi:namedview
     id="base"
     pagecolor="#ffffff"
     bordercolor="#666666"
     borderopacity="1.0"
     inkscape:pageopacity="0.0"
     inkscape:pageshadow="2"
     inkscape:zoom="0.35"
     inkscape:cx="400"
     inkscape:cy="458.12272"
     inkscape:document-units="mm"
     inkscape:current-layer="layer1"
     inkscape:document-rotation="0"
     showgrid="false"
     units="px"
     inkscape:window-width="1920"
     inkscape:window-height="1017"
     inkscape:window-x="-8"
     inkscape:window-y="-8"
     inkscape:window-maximized="1" />
  <metadata
     id="metadata1192">
    <rdf:RDF>
      <cc:Work
         rdf:about="">
        <dc:format>image/svg+xml</dc:format>
        <dc:type
           rdf:resource="http://purl.org/dc/dcmitype/StillImage" />
        <dc:title></dc:title>
      </cc:Work>
    </rdf:RDF>
  </metadata>
  <g
     inkscape:label="Layer 1"
     inkscape:groupmode="layer"
     id="layer1">
    <path
       id="path341"
       d="m 70.633838,164.20111 c -2.70338,-11.356 2.688746,-23.51778 -0.357739,-34.78487 -0.937524,-3.46867 -4.397219,-4.9802 -5.716262,-8.19003 -2.703361,-6.57611 0.839604,-11.08252 -6.305985,-15.5495 v 7.87832 L 45.873695,97.798447 67.257602,82.041879 106.64902,56.156117 c 0,8.084234 -0.26245,13.258025 7.87826,16.882032 l -1.15587,-12.014388 -6.55586,-9.38609 -0.16633,-47.253136 C 81.178732,14.038488 57.730719,36.705301 34.619218,51.176571 26.680162,56.147109 11.221849,62.719856 6.5140144,70.994268 c -3.1569378,5.548578 -1.156983,16.07957 -1.156983,22.302315 0,7.755587 -2.4794078,20.630937 0.6786584,27.769807 2.3837404,5.38648 11.4899092,9.22998 16.2033712,12.37227 14.77853,9.85237 31.452353,25.36355 48.39516,30.76245 M 142.66421,48.277815 c 0,10.832659 -2.58518,25.389459 0.35772,35.807933 0.95553,3.384284 4.44784,4.966674 5.71627,8.190032 2.39839,6.095515 -0.71802,10.98345 6.306,14.52644 v -7.878321 l 12.38018,15.756571 v 2.25096 l -60.77532,39.3914 c 0,-8.59182 -0.16334,-13.51799 -9.003762,-16.88202 l 1.15698,11.79715 7.680202,9.63175 0.16674,47.22467 70.90454,-46.14758 28.10519,-19.7126 1.15698,-23.05182 -1.15698,-28.895318 -17.97598,-13.121847 -45.01876,-28.8874 m -14.63108,1.125499 c 0,8.365573 0.1191,12.505061 7.87826,16.882032 0,-7.87266 0.38029,-13.644084 -7.87826,-16.882032 m 21.38388,14.631069 c 12.5231,7.728578 12.38017,13.094847 12.38017,27.011249 -11.96824,-3.814199 -17.39074,-15.071166 -12.38017,-27.011249 m -25.88575,4.501865 c 0.065,5.472057 0.86095,8.274461 5.62732,11.254716 -0.0643,-5.415779 -0.71918,-8.500671 -5.62732,-11.254716 m -4.5019,14.631118 c 0,9.218704 -0.74955,15.422282 9.00377,19.132944 0,-9.232191 0.13398,-14.769497 -9.00377,-19.132944 m 15.75658,3.376413 c 0,10.68182 -0.44792,16.376681 10.12921,21.383881 0,-10.257508 0.77883,-17.24444 -10.12921,-21.383881 M 67.257815,104.55126 c 0,10.68182 -0.447918,16.37672 10.129218,21.38393 0,-10.25756 0.778817,-17.24444 -10.129218,-21.38393 m 16.88203,5.62735 c 0,9.50907 0.139522,14.17529 9.003763,19.13298 0,-9.21874 0.749551,-15.42232 -9.003763,-19.13298 M 52.62672,121.43329 c 12.363256,8.18105 12.380144,12.63564 12.380144,27.01125 C 53.03864,144.63032 47.616132,133.37341 52.62672,121.43329 m 31.513125,12.38017 c 0.05743,4.77648 0.436689,7.35042 4.50186,10.12921 -0.05529,-4.68306 -0.191419,-7.75222 -4.50186,-10.12921 m -7.878267,12.38016 c 0,9.13316 0.591994,13.30302 9.003721,18.00749 0,-8.89121 -0.320732,-13.86128 -9.003721,-18.00749 z"
       style="fill:url(#linearGradient349);stroke:none;stroke-width:1.12547;fill-opacity:1" />
  </g>
</svg>
