<?xml version="1.0" encoding="UTF-8" standalone="no"?>
<svg
   xmlns:dc="http://purl.org/dc/elements/1.1/"
   xmlns:cc="http://creativecommons.org/ns#"
   xmlns:rdf="http://www.w3.org/1999/02/22-rdf-syntax-ns#"
   xmlns:svg="http://www.w3.org/2000/svg"
   xmlns="http://www.w3.org/2000/svg"
   xmlns:xlink="http://www.w3.org/1999/xlink"
   xmlns:sodipodi="http://sodipodi.sourceforge.net/DTD/sodipodi-0.dtd"
   xmlns:inkscape="http://www.inkscape.org/namespaces/inkscape"
   width="1080"
   height="1080"
   viewBox="0 0 285.74999 285.75001"
   version="1.1"
   id="svg8"
   sodipodi:docname="logo_sifap4.svg"
   inkscape:version="1.0 (4035a4fb49, 2020-05-01)">
  <defs
     id="defs2">
    <linearGradient
       id="linearGradient39"
       inkscape:collect="always">
      <stop
         id="stop35"
         offset="0"
         style="stop-color:#008080;stop-opacity:1;" />
      <stop
         id="stop37"
         offset="1"
         style="stop-color:#008080;stop-opacity:0;" />
    </linearGradient>
    <linearGradient
       gradientUnits="userSpaceOnUse"
       y2="331.86478"
       x2="293.01773"
       y1="-4.4396625"
       x1="6.6594934"
       id="linearGradient41"
       xlink:href="#linearGradient39"
       inkscape:collect="always" />
    <linearGradient
       gradientUnits="userSpaceOnUse"
       y2="331.86478"
       x2="293.01773"
       y1="-4.4396625"
       x1="6.6594934"
       id="linearGradient43"
       xlink:href="#linearGradient39"
       inkscape:collect="always" />
  </defs>
  <sodipodi:namedview
     id="base"
     pagecolor="#ffffff"
     bordercolor="#666666"
     borderopacity="1.0"
     inkscape:pageopacity="0.0"
     inkscape:pageshadow="2"
     inkscape:zoom="0.23838149"
     inkscape:cx="1144.7718"
     inkscape:cy="655.25826"
     inkscape:document-units="mm"
     inkscape:current-layer="layer1"
     inkscape:document-rotation="0"
     showgrid="false"
     units="px"
     inkscape:window-width="1920"
     inkscape:window-height="1017"
     inkscape:window-x="-8"
     inkscape:window-y="-8"
     inkscape:window-maximized="1" />
  <metadata
     id="metadata5">
    <rdf:RDF>
      <cc:Work
         rdf:about="">
        <dc:format>image/svg+xml</dc:format>
        <dc:type
           rdf:resource="http://purl.org/dc/dcmitype/StillImage" />
        <dc:title></dc:title>
      </cc:Work>
    </rdf:RDF>
  </metadata>
  <g
     inkscape:label="Layer 1"
     inkscape:groupmode="layer"
     id="layer1">
    <path
       style="fill:url(#linearGradient41);stroke:none;stroke-width:1.54806;fill-opacity:1"
       d="m 139.84209,46.749093 h -1.54804 c -3.8158,-7.089044 -9.55041,-7.812453 -17.02866,-6.192272 2.07784,10.738268 23.15061,29.809723 26.31701,10.836447 h 1.54804 v 6.192214 c 14.86446,-0.12287 27.10806,-2.562063 30.96119,-18.5767 h -15.48057 c 4.46303,-12.245585 3.8856,-22.943132 -3.09613,-34.0572645 -15.7668,7.4141215 -24.7719,25.0449605 -21.67284,41.7975755 m 12.38449,-1.548097 -1.54804,1.548097 1.54804,-1.548097 m -10.83639,3.096136 -1.5481,1.548039 1.5481,-1.548039 m 9.28835,0 -1.5481,1.548039 1.5481,-1.548039 m -7.74031,3.096136 -1.54804,1.548039 1.54804,-1.548039 m 0,10.836389 C 120.1347,80.736848 96.727938,99.795314 76.432703,121.05589 4.3795633,196.5361 97.951953,314.56011 189.37998,271.55502 c 11.91231,-5.60244 22.77503,-13.55017 31.34044,-23.58159 8.68769,-10.17231 15.92798,-22.60629 19.50091,-35.58213 4.23859,-15.39544 4.78811,-32.36676 1.46601,-47.98979 -4.37017,-20.55203 -15.82272,-36.60927 -30.63453,-51.06317 C 193.09069,95.8089 172.46125,74.806405 150.67854,62.229657 175.12858,99.191264 221.5378,126.33846 226.26868,173.68986 235.06011,261.65671 110.59447,289.11465 75.308681,210.84326 70.613545,200.4279 68.210217,188.19829 68.692392,176.78599 70.210884,140.84005 98.156443,116.9345 120.1533,91.642746 127.21725,83.52072 140.66274,72.907837 142.93823,62.229657 m -35.60537,69.662623 -1.54803,3.09614 1.54803,-3.09614 m 78.95098,0 1.5481,1.54804 -1.5481,-1.54804 m -58.82618,3.09614 1.54804,1.54804 -1.54804,-1.54804 m 38.70144,0 1.54804,1.54804 -1.54804,-1.54804 m -61.92231,1.54804 1.54804,1.54804 -1.54804,-1.54804 m 85.14319,0 1.54804,1.54804 -1.54804,-1.54804 m -63.47042,1.54804 1.5481,1.54809 -1.5481,-1.54809 m 41.79758,0 1.5481,1.54809 -1.5481,-1.54809 m -64.50246,2.58061 0.51605,1.03105 -0.51605,-1.03105 m 88.23886,0 0.51722,1.03105 -0.51722,-1.03105 m -67.08201,0.51546 c 0.0293,10.62436 2.13541,18.04883 10.83638,24.76892 l -10.83638,-24.76892 m 44.89371,0 -9.28835,24.76892 c 7.68145,-5.93366 13.35662,-15.05175 9.28835,-24.76892 m -68.11459,3.09614 v 4.64418 h 1.54804 l -1.54804,-4.64418 m 91.33546,0 v 4.64418 h 1.54804 l -1.54804,-4.64418 m -89.78742,6.19221 9.28835,15.48057 -9.28835,-15.48057 m 88.23933,0 -7.74026,15.48057 c 5.37022,-3.28495 9.48805,-9.0886 7.74026,-15.48057 z"
       id="path56" />
    <path
       id="path90-7"
       d="m 74.31613,176.50749 0.406054,11.36455 2.435215,9.53813 4.667579,11.16164 7.102911,10.75571 6.696974,7.30582 10.349827,8.72637 10.95873,6.29109 16.43801,5.47934 15.42334,1.42054 15.62631,-2.43527 7.71164,-2.43522 14.20571,-7.10285 9.53813,-8.11758 8.11752,-10.14691 6.49406,-9.74104 6.29109,-14.2057 1.82643,-10.14698 0.20303,-6.89988 -5.07346,3.65285 -13.39401,8.72637 -13.59685,6.69697 -11.16165,1.62352 -10.75576,0.20303 -12.58219,-4.2617 -8.92928,-7.91461 -8.11758,-7.71165 -13.19097,-6.89994 -12.78516,-1.21764 -11.364554,0.60885 -16.43801,3.44994 z"
       style="fill:url(#linearGradient43);stroke:none;stroke-width:1.54806px;stroke-linecap:butt;stroke-linejoin:miter;stroke-opacity:1;fill-opacity:1" />
  </g>
</svg>
