<?xml version="1.0" encoding="UTF-8" standalone="no"?>
<svg
   xmlns:dc="http://purl.org/dc/elements/1.1/"
   xmlns:cc="http://creativecommons.org/ns#"
   xmlns:rdf="http://www.w3.org/1999/02/22-rdf-syntax-ns#"
   xmlns:svg="http://www.w3.org/2000/svg"
   xmlns="http://www.w3.org/2000/svg"
   xmlns:xlink="http://www.w3.org/1999/xlink"
   xmlns:sodipodi="http://sodipodi.sourceforge.net/DTD/sodipodi-0.dtd"
   xmlns:inkscape="http://www.inkscape.org/namespaces/inkscape"
   sodipodi:docname="logosys.svg"
   inkscape:version="1.0 (4035a4fb49, 2020-05-01)"
   id="svg52"
   version="1.1"
   viewBox="0 0 161.925 161.925"
   height="612"
   width="612">
  <defs
     id="defs46">
    <linearGradient
       y2="64.255951"
       x2="164.04167"
       y1="214.69048"
       x1="-3.7797625"
       gradientTransform="matrix(0.74514246,0,0,0.74514246,16.858537,-30.696703)"
       gradientUnits="userSpaceOnUse"
       id="linearGradient152"
       xlink:href="#linearGradient99"
       inkscape:collect="always" />
    <linearGradient
       id="linearGradient99"
       inkscape:collect="always">
      <stop
         id="stop95"
         offset="0"
         style="stop-color:#29577f;stop-opacity:1;" />
      <stop
         id="stop97"
         offset="1"
         style="stop-color:#29577f;stop-opacity:0;" />
    </linearGradient>
    <linearGradient
       gradientTransform="matrix(0.74514246,0,0,0.74514246,4.4661027,-23.373906)"
       gradientUnits="userSpaceOnUse"
       y2="36.285713"
       x2="206.375"
       y1="157.76726"
       x1="73.176216"
       id="linearGradient150"
       xlink:href="#linearGradient148"
       inkscape:collect="always" />
    <linearGradient
       id="linearGradient148"
       inkscape:collect="always">
      <stop
         id="stop144"
         offset="0"
         style="stop-color:#2c5aa0;stop-opacity:1;" />
      <stop
         id="stop146"
         offset="1"
         style="stop-color:#2c5aa0;stop-opacity:0;" />
    </linearGradient>
    <linearGradient
       y2="36.285713"
       x2="206.375"
       y1="157.76726"
       x1="73.176216"
       gradientTransform="matrix(0.74514246,0,0,0.74514246,4.4661027,-23.373906)"
       gradientUnits="userSpaceOnUse"
       id="linearGradient124"
       xlink:href="#linearGradient148"
       inkscape:collect="always" />
    <linearGradient
       y2="36.285713"
       x2="206.375"
       y1="157.76726"
       x1="73.176216"
       gradientTransform="matrix(0.74514246,0,0,0.74514246,4.4661027,-23.373906)"
       gradientUnits="userSpaceOnUse"
       id="linearGradient126"
       xlink:href="#linearGradient148"
       inkscape:collect="always" />
  </defs>
  <sodipodi:namedview
     inkscape:window-maximized="1"
     inkscape:window-y="-8"
     inkscape:window-x="-8"
     inkscape:window-height="1017"
     inkscape:window-width="1920"
     units="px"
     showgrid="false"
     inkscape:document-rotation="0"
     inkscape:current-layer="layer1"
     inkscape:document-units="mm"
     inkscape:cy="643.09961"
     inkscape:cx="728.02734"
     inkscape:zoom="0.5"
     inkscape:pageshadow="2"
     inkscape:pageopacity="0.0"
     borderopacity="1.0"
     bordercolor="#666666"
     pagecolor="#ffffff"
     id="base" />
  <metadata
     id="metadata49">
    <rdf:RDF>
      <cc:Work
         rdf:about="">
        <dc:format>image/svg+xml</dc:format>
        <dc:type
           rdf:resource="http://purl.org/dc/dcmitype/StillImage" />
        <dc:title></dc:title>
      </cc:Work>
    </rdf:RDF>
  </metadata>
  <g
     id="layer1"
     inkscape:groupmode="layer"
     inkscape:label="Layer 1">
    <path
       id="path105"
       d="M 34.545918,18.084403 C 27.178731,23.766724 20.617111,30.340179 15.558577,38.19394 0.63730031,61.360121 -1.2096169,91.373587 11.138027,116.06908 c 3.995886,7.99177 9.422103,14.99798 15.718952,21.29245 6.366638,6.36409 14.226506,11.51903 22.47536,15.09793 22.958392,9.95817 49.725348,8.65892 71.369121,-4.05523 4.33576,-2.5468 8.40597,-5.52027 12.22344,-8.791 1.63576,-1.40157 4.01185,-3.24259 4.9288,-5.20897 -7.05076,-4.40558 -13.6942,-9.97789 -20.30666,-15.02223 -1.82229,-1.39012 -3.70647,-2.69704 -5.52028,-4.09938 -0.67209,-0.51969 -1.67599,-1.58157 -2.56297,-1.63638 -1.3645,-0.0841 -3.60277,2.39304 -4.73166,3.14578 -3.38846,2.25897 -7.136524,4.07099 -11.040536,5.2468 -18.01911,5.42701 -36.937249,-1.5228 -47.958271,-16.63354 C 36.199635,92.333913 35.905675,74.24245 43.478694,60.275 c 1.877476,-3.462982 4.332028,-6.648369 7.070076,-9.472975 0.762981,-0.787228 3.214574,-2.222297 3.257755,-3.359474 0.02757,-0.724138 -0.813651,-1.577223 -1.183309,-2.151129 C 51.431614,43.441344 50.225438,41.592058 48.988308,39.771159 45.98627,35.352383 43.031751,30.864604 40.151946,26.3648 38.451509,23.707775 36.811397,20.278906 34.545918,18.084403"
       style="fill:url(#linearGradient152);fill-opacity:1;stroke:none;stroke-width:0.197152" />
    <path
       id="path158"
       d="m 77.919425,45.291422 c 0,1.181928 0.438069,3.457065 -0.202672,4.47969 -0.529945,0.845787 -2.257394,1.066008 -3.148912,1.320728 -2.229399,0.637192 -4.543179,1.355818 -6.506025,2.617591 -4.380924,2.81652 -7.059234,7.676324 -7.28695,12.874437 -0.48736,11.131213 9.23619,15.151935 17.736016,19.166934 3.724392,1.759193 8.600166,3.192093 9.826454,7.645766 2.192723,7.963962 -6.431303,12.648502 -13.178039,9.598752 -3.835404,-1.73376 -4.628541,-5.071744 -5.323111,-8.810147 H 58.992813 c 0,2.865013 0.09089,5.64289 1.376315,8.280397 2.893605,5.93684 10.503484,9.21214 16.76169,10.05476 v 4.53452 h 5.717403 c 0,-1.11411 -0.42368,-3.32183 0.202679,-4.27546 0.494261,-0.75252 2.145407,-0.76672 2.951755,-0.92937 2.094551,-0.42211 4.251985,-1.11037 6.111726,-2.174 4.46116,-2.55194 7.313955,-6.75385 7.671393,-11.942105 0.116711,-1.69689 0.190451,-3.646921 -0.103698,-5.323111 C 98.216052,84.055893 91.191317,81.079682 84.228296,77.882463 80.269473,76.064725 74.07792,74.329787 72.602039,69.73831 c -2.339605,-7.27926 5.674036,-13.951877 12.217713,-9.338513 2.575392,1.81577 3.615178,4.913625 3.745892,7.958442 h 11.040524 c 0,-9.690228 -6.393646,-16.454329 -15.969328,-17.743709 l -0.197151,-5.520259 -5.520261,0.197151"
       style="fill:url(#linearGradient150);fill-opacity:1;stroke:none;stroke-width:0.197152" />
    <path
       id="path156"
       d="m 117.54704,104.04279 c 7.04009,5.05715 13.96408,10.30082 20.89812,15.50149 l 5.12596,3.84447 c 0.52837,0.39609 1.40116,1.31758 2.13222,1.18114 1.07978,-0.20148 2.30034,-3.074 2.82399,-3.96631 2.51192,-4.28076 4.36712,-8.68575 6.09221,-13.32277 5.77261,-15.507201 6.19255,-33.378452 1.24205,-49.174488 -1.05476,-3.364407 -2.34412,-6.623923 -3.74392,-9.857616 -0.47119,-1.084139 -1.04097,-3.058028 -1.9794,-3.813321 -0.62635,-0.504511 -1.51334,0.319981 -2.03264,0.648439 -1.66082,1.050428 -3.29343,2.140482 -4.92882,3.230535 -5.5656,3.710208 -11.18424,7.342933 -16.75793,11.040524 -1.34656,0.893105 -5.2825,2.53183 -5.77499,4.110824 -0.36118,1.157684 1.14447,3.538488 1.49283,4.695381 1.04293,3.462782 1.89858,7.211831 1.91612,10.843366 0.0294,6.102448 -0.73635,11.804092 -2.89477,17.546547 -0.96507,2.56712 -2.84945,4.902579 -3.61103,7.491789"
       style="fill:url(#linearGradient126);fill-opacity:1;stroke:none;stroke-width:0.197152" />
    <path
       id="path56"
       d="m 45.192141,11.381226 6.139125,9.463311 13.378958,20.306687 c 3.320638,-0.908277 6.412578,-2.165913 9.857617,-2.675948 8.955241,-1.325453 17.629145,0.279955 25.826939,3.999432 3.58916,1.628278 6.9922,4.305614 9.85761,6.974459 0.76949,0.71685 2.4575,3.215165 3.56629,3.170798 0.79393,-0.03173 1.71423,-0.926416 2.34829,-1.348322 1.83193,-1.218992 3.6686,-2.435617 5.52025,-3.624252 7.21774,-4.633669 14.37871,-9.387998 21.48959,-14.185109 C 127.19978,12.097086 100.01742,0.60803586 73.582078,3.1343444 63.404288,4.1068969 54.542294,7.54543 45.192141,11.381226"
       style="fill:url(#linearGradient124);fill-opacity:1;stroke:none;stroke-width:0.197152" />
  </g>
</svg>
