<?xml version="1.0" encoding="UTF-8" standalone="no"?>
<svg
   xmlns:dc="http://purl.org/dc/elements/1.1/"
   xmlns:cc="http://creativecommons.org/ns#"
   xmlns:rdf="http://www.w3.org/1999/02/22-rdf-syntax-ns#"
   xmlns:svg="http://www.w3.org/2000/svg"
   xmlns="http://www.w3.org/2000/svg"
   xmlns:sodipodi="http://sodipodi.sourceforge.net/DTD/sodipodi-0.dtd"
   xmlns:inkscape="http://www.inkscape.org/namespaces/inkscape"
   inkscape:version="1.0 (4035a4fb49, 2020-05-01)"
   sodipodi:docname="logosys_b.svg"
   id="svg19"
   version="1.1"
   height="35"
   width="108"
   viewBox="0 0 108 35"
   style="isolation:isolate">
  <metadata
     id="metadata23">
    <rdf:RDF>
      <cc:Work
         rdf:about="">
        <dc:format>image/svg+xml</dc:format>
        <dc:type
           rdf:resource="http://purl.org/dc/dcmitype/StillImage" />
        <dc:title></dc:title>
      </cc:Work>
    </rdf:RDF>
  </metadata>
  <sodipodi:namedview
     inkscape:current-layer="svg19"
     inkscape:window-maximized="1"
     inkscape:window-y="-8"
     inkscape:window-x="-8"
     inkscape:cy="24.627049"
     inkscape:cx="49.727695"
     inkscape:zoom="5.3895371"
     showgrid="false"
     id="namedview21"
     inkscape:window-height="1017"
     inkscape:window-width="1920"
     inkscape:pageshadow="2"
     inkscape:pageopacity="0"
     guidetolerance="10"
     gridtolerance="10"
     objecttolerance="10"
     borderopacity="1"
     bordercolor="#666666"
     pagecolor="#ffffff" />
  <defs
     id="defs5">
    <clipPath
       id="_clipPath_ExHkZ7m05wbfhYE9fUdYTnbeAY4xahIR">
      <rect
         id="rect2"
         height="35"
         width="108" />
    </clipPath>
  </defs>
  <text
     id="text46"
     y="23.840628"
     x="43.011101"
     style="font-style:normal;font-weight:normal;font-size:14.483px;line-height:1.25;font-family:sans-serif;fill:#ffffff;fill-opacity:0.93333334;stroke:none;stroke-width:0.362074;"
     xml:space="preserve"><tspan
       style="font-style:normal;font-variant:normal;font-weight:bold;font-stretch:normal;font-family:Arial;-inkscape-font-specification:'Arial Bold';stroke-width:0.362074;fill:#ffffff;fill-opacity:0.93333334;"
       y="23.840628"
       x="43.011101"
       id="tspan44"
       sodipodi:role="line">SISCAM</tspan></text>
  <g
     style="fill:#ffffff"
     transform="matrix(0.80261066,0,0,0.80261066,40.853059,-0.3269602)"
     id="g126">
    <path
       style="fill:#ffffff;fill-opacity:1;stroke:none;stroke-width:0.050977"
       d="m -39.985755,5.8243102 c -1.90492,1.4692687 -3.60154,3.1689531 -4.90952,5.1996888 -3.85817,5.990032 -4.33572,13.750559 -1.14301,20.136026 1.03321,2.06642 2.43625,3.878002 4.06442,5.505552 1.64621,1.645549 3.67852,2.978452 5.81141,3.903841 5.93631,2.574867 12.85739,2.238923 18.45378,-1.048553 1.12109,-0.658519 2.17352,-1.427366 3.16059,-2.273072 0.42296,-0.3624 1.03734,-0.838428 1.27443,-1.346873 -1.8231,-1.139142 -3.54088,-2.579967 -5.25065,-3.88427 -0.47119,-0.359443 -0.95838,-0.697371 -1.42737,-1.059971 -0.17378,-0.134374 -0.43336,-0.408942 -0.6627,-0.423113 -0.35282,-0.02174 -0.93156,0.618764 -1.22346,0.813396 -0.87615,0.584098 -1.84528,1.052628 -2.85473,1.356655 -4.65917,1.403254 -9.55079,-0.393745 -12.40048,-4.300903 -2.46511,-3.379847 -2.54112,-8.057722 -0.58298,-11.669261 0.48546,-0.895414 1.12013,-1.719054 1.8281,-2.449405 0.19728,-0.203555 0.83119,-0.574619 0.84235,-0.868656 0.007,-0.187237 -0.21038,-0.407817 -0.30596,-0.556214 -0.30811,-0.478369 -0.61999,-0.956537 -0.93988,-1.427362 -0.77623,-1.142554 -1.54017,-2.302952 -2.2848,-3.4664592 -0.43968,-0.6870205 -0.86376,-1.5736154 -1.44954,-2.1410466"
       id="path105" />
    <path
       style="fill:#ffffff;fill-opacity:1;stroke:none;stroke-width:0.050977"
       d="m -28.770745,12.859178 c 0,0.30561 0.11327,0.893888 -0.0524,1.158307 -0.13702,0.218695 -0.58368,0.275636 -0.8142,0.3415 -0.57645,0.164756 -1.17473,0.350569 -1.68225,0.676822 -1.13277,0.728264 -1.8253,1.984855 -1.88418,3.328919 -0.12601,2.87818 2.38819,3.917807 4.58597,4.955961 0.96301,0.454871 2.22373,0.825371 2.54081,1.976949 0.56697,2.059229 -1.66293,3.270501 -3.40742,2.481933 -0.99172,-0.448297 -1.1968,-1.311393 -1.37639,-2.278023 h -2.80375 c 0,0.7408 0.0235,1.459071 0.35587,2.141047 0.74819,1.535075 2.71587,2.381964 4.33404,2.599841 v 1.172482 h 1.47834 c 0,-0.288073 -0.10955,-0.85892 0.0524,-1.105498 0.12779,-0.19458 0.55473,-0.198249 0.76323,-0.240307 0.54158,-0.109145 1.09942,-0.287103 1.58029,-0.562126 1.15352,-0.659849 1.89116,-1.746333 1.98358,-3.087847 0.0302,-0.438765 0.0493,-0.94298 -0.0268,-1.376389 -0.37907,-2.160311 -2.19544,-2.929865 -3.99586,-3.756565 -1.02362,-0.470007 -2.62456,-0.91861 -3.00618,-2.10582 -0.60494,-1.882183 1.46713,-3.607509 3.15912,-2.414642 0.66591,0.4695 0.93476,1.270509 0.96856,2.057801 h 2.85473 c 0,-2.505585 -1.65319,-4.254565 -4.12916,-4.587956 l -0.051,-1.427366 -1.42736,0.05098"
       id="path158" />
    <path
       style="fill:#ffffff;fill-opacity:1;stroke:none;stroke-width:0.050977"
       d="m -18.524305,28.05041 c 1.82034,1.307617 3.61066,2.663466 5.40359,4.008192 l 1.3254,0.994058 c 0.13662,0.102415 0.3623,0.340685 0.55133,0.305406 0.27919,-0.0521 0.59479,-0.79484 0.73019,-1.025563 0.6494999,-1.106868 1.1291999,-2.245859 1.5752499,-3.444842 1.49262,-4.009669 1.6012,-8.630607 0.32116,-12.714958 -0.27273,-0.869929 -0.60612,-1.712735 -0.96806,-2.548864 -0.12183,-0.280324 -0.26916,-0.790708 -0.5118099,-0.986003 -0.16196,-0.130451 -0.3913,0.08274 -0.52557,0.167665 -0.42944,0.271607 -0.85158,0.553461 -1.27444,0.835315 -1.43909,0.959339 -2.89189,1.898645 -4.33307,2.854728 -0.34817,0.230926 -1.36588,0.654649 -1.49322,1.062928 -0.0934,0.299339 0.29592,0.91494 0.38599,1.214075 0.26967,0.895365 0.49091,1.864747 0.49545,2.803747 0.008,1.577898 -0.1904,3.052162 -0.74849,4.53698 -0.24954,0.663776 -0.73678,1.267649 -0.9337,1.937136"
       id="path156" />
    <path
       style="fill:#ffffff;fill-opacity:1;stroke:none;stroke-width:0.050977"
       d="m -37.232975,4.0910845 1.58738,2.4469104 3.45937,5.2506611 c 0.85861,-0.23485 1.65809,-0.560035 2.54887,-0.691913 2.31554,-0.342723 4.55833,0.07239 6.67802,1.034125 0.92804,0.421018 1.80796,1.113295 2.54887,1.803372 0.19896,0.185354 0.63543,0.831339 0.92212,0.819868 0.20529,-0.0082 0.44325,-0.239542 0.60719,-0.348634 0.47368,-0.315191 0.94859,-0.629773 1.42737,-0.937117 1.86627,-1.198117 3.71787,-2.427438 5.55652,-3.6678174 -4.13115,-5.5243584 -11.15964,-8.4950587 -17.99498,-7.841837 -2.63165,0.2514712 -4.92308,1.1405655 -7.34073,2.1323819"
       id="path56" />
  </g>
</svg>
