<?xml version="1.0" encoding="UTF-8"?>
<!DOCTYPE svg PUBLIC "-//W3C//DTD SVG 1.1//EN" "http://www.w3.org/Graphics/SVG/1.1/DTD/svg11.dtd">
<!-- Creator: CorelDRAW 2019 -->
<svg xmlns="http://www.w3.org/2000/svg" xml:space="preserve" width="502.708mm" height="185.208mm" version="1.1" style="shape-rendering:geometricPrecision; text-rendering:geometricPrecision; image-rendering:optimizeQuality; fill-rule:evenodd; clip-rule:evenodd"
viewBox="0 0 50270.82 18520.82"
 xmlns:xlink="http://www.w3.org/1999/xlink">
 <defs>
  <style type="text/css">
   <![CDATA[
    .fil0 {fill:#FEFEFE}
    .fil1 {fill:#FEFEFE;fill-rule:nonzero}
   ]]>
  </style>
 </defs>
 <g id="Camada_x0020_1">
  <metadata id="CorelCorpID_0Corel-Layer"/>
  <g id="_613900048">
   <path class="fil0" d="M12616.69 11494.65c-48.88,315.89 599.46,5252.68 2531.84,3780.95 246.76,-187.94 402.5,-248.9 490.6,-553.53 -361.24,195.73 -903.75,562.05 -1346.93,226.99 643.07,-530.76 647.06,-324.93 1468.18,-1171.54 84.62,-87.24 92.93,-75.11 163.97,-147.17l1011.43 -1407.74c692.46,-1317.02 1071.44,-2847.09 829.06,-4531.96 -679.45,-4722.85 -5042.71,-5844.06 -5057.39,-5857.37 -183.36,-166.17 -121.5,-1390.83 -236.66,-1687.75 -242.09,602.05 -132.8,3761.59 -251.82,4699.39 245.32,-14.98 1737.68,-283.87 1853.71,-376.15 224.66,-178.7 191.08,-341.11 631.87,-482.49 1375.58,-441.15 2130.29,1596.44 791.68,2152.07 -349.47,145.07 -717.4,15.35 -999.52,-15.8 -257.61,-456.16 -1043.11,7.5 -1814.66,124.33l-310.7 -6.07c-51.67,-185.97 -47.87,-378.58 -158.83,-561.23 -17.26,590.05 104.19,4887.8 340.24,5665.41l63.93 149.66z"/>
   <g>
    <path class="fil0" d="M3541.52 7339.42l-107.61 1191.42c-478.41,133.24 -1146.78,-13.94 -1496.22,-262.14 -0.43,-498.52 291.97,-627.27 488.92,-880.35 -337.25,118.39 -1330.99,828.43 -815.82,1255.15 797.09,660.23 4804.12,206.25 5807.71,65.23 837.84,-117.73 474.08,41.59 885.6,-466.18 371.13,-457.97 1272.66,-563.62 1748.94,11.03 520.78,628.33 218.15,1460.2 -405.04,1760.16 -546.51,263.06 -665.03,21.74 -1087.8,-37.25l-3480.05 497.94c-2202.45,212.58 -2738.01,218.97 -4821.11,-168.74 878.08,730.95 2261.43,435.31 3475.09,555.11 58.45,99.98 577.49,1300.76 608.28,1409.71 -422.03,17.88 -1189.37,31.18 -1479.7,-172.65 -459.18,-322.39 143.14,-757.14 306.05,-1035.4 -543.47,260.79 -1706.84,1126.92 -435.55,1488.97 1163.72,331.42 3729.11,70.06 5083.16,-86.5 425.05,-49.15 314.8,6.9 544.27,-265.78 542.76,-644.95 1670.89,-520.95 1964.08,311.08 329.45,934.95 -585.13,1815.61 -1501.64,1436.37 -329.34,-136.28 -241.82,-171.64 -659.81,-98.17l-2118.77 311.22c-1583.8,176.18 -4464.92,403.27 -5569.29,-432.06 94.88,1300.51 4353.07,1099.63 5625.29,1002.1 774.59,-59.38 815.18,176.92 1409.95,471.44 980.13,485.31 1837.75,638.54 3076.56,716.45 230.82,266.01 745.5,2080.99 2355.71,2392.14 1329.89,256.96 2419.39,-1016.45 2604.31,-2044.65 -267.21,690.37 -984.75,1316.9 -1747.05,1438.28 -924.78,147.28 -1492.85,-462.16 -1931.61,-1218.73 -1216.57,-2097.83 -1304.74,-5242.1 -1048.6,-7772.25 48.37,-477.94 240.45,-1825.77 206.5,-2170.97 -2266.21,293.04 -5639.1,825.16 -7960.09,328.25 -370.63,-79.35 -729.25,-173.9 -1002.74,-411.88 -429.94,-374.13 -161.77,-635.6 0.54,-1003.39 -513.27,295.7 -704.81,891.21 -162.56,1350.5 372.77,315.71 1030.66,477.81 1640.1,534.54z"/>
    <path class="fil0" d="M9550.74 1641.66c-1193.65,-158.54 -3350.79,1250.75 -4271.1,2276.58 -340.27,379.3 -865.45,1187.98 -987.85,1260.66 -534.07,-292.28 61.1,-848.18 281.49,-1101.37 147.63,-169.58 189.06,-205.36 316.9,-334.61 -491.22,272.73 -1254.22,819.96 -1155.49,1491.39 1258.43,906.66 4732.12,145.03 6356.38,-7.6 394.15,-34.02 881.15,-90.74 1160.7,-237.71 82.19,-229.88 650.52,-3112.77 645.73,-3347.54 -409.12,-86.03 -737.22,-96.41 -1161.65,-97.99 -221.49,-0.8 -996.19,-19.17 -1185.11,98.19z"/>
   </g>
   <path class="fil0" d="M8781.86 8319.11c-700.52,471.7 -222.75,1912.48 764.44,1356.59 980.23,-551.95 -38.89,-1845.14 -764.44,-1356.59z"/>
   <path class="fil0" d="M14727.17 4429.57c-977.86,557.18 -142.94,1795.6 710.77,1349.07 828.26,-433.21 179.48,-1856.36 -710.77,-1349.07z"/>
   <path class="fil0" d="M8954.25 12233.31c-990.05,475.16 -270.91,1771.25 626.28,1381.41 823.37,-357.76 315.44,-1833.39 -626.28,-1381.41z"/>
  </g>
  <path class="fil1" d="M27362.25 10996.32c-275.15,573.8 -667.74,1011.69 -1177.78,1312.01 -508.36,302 -1110.68,452.99 -1805.27,452.99 -449.64,0 -865.72,-63.75 -1248.25,-191.26 -384.21,-127.51 -728.15,-317.1 -1033.5,-565.4 -409.37,-330.52 -716.4,-716.41 -921.09,-1157.66 -204.69,-441.25 -307.03,-929.48 -307.03,-1466.36 0,-1023.43 333.87,-1860.63 999.94,-2514.96 667.75,-652.65 1525.09,-979.81 2573.68,-979.81 602.32,0 1127.46,120.8 1575.42,360.72 446.28,241.6 833.85,614.06 1162.69,1117.39l-835.53 615.73c-199.65,-426.15 -444.6,-746.6 -731.5,-959.67 -288.57,-213.08 -617.42,-318.78 -988.2,-318.78 -567.08,0 -1004.98,228.18 -1317.04,686.2 -310.39,456.36 -466.42,1102.29 -466.42,1937.82 0,770.09 177.85,1390.86 535.21,1862.31 357.36,471.45 825.45,708.01 1405.96,708.01 365.75,0 699.62,-119.12 1001.62,-355.68 302,-238.24 565.41,-588.9 790.23,-1055.31l786.86 511.71zm2085.46 -1174.43l1622.39 0 -850.62 -2355.57 -771.77 2355.57zm-1872.38 2778.37l2256.59 -6573.46 1778.42 0 2407.58 6573.46 -1956.26 0 -692.92 -1942.84 -2206.25 0 -652.65 1942.84 -934.51 0zm9048.15 -5687.6l0 4801.74 634.19 0c605.67,0 1075.44,-208.04 1405.96,-624.12 330.52,-416.09 496.62,-1008.34 496.62,-1775.07 0,-766.74 -166.1,-1358.98 -498.3,-1776.75 -333.87,-417.76 -801.97,-625.8 -1404.28,-625.8l-634.19 0zm-1842.18 5687.6l0 -6573.46 2221.35 0c649.29,0 1172.75,46.98 1570.38,140.93 399.31,92.28 758.35,248.31 1080.48,463.07 468.09,312.06 833.84,704.65 1095.57,1181.14 263.41,474.8 394.28,979.81 394.28,1513.34 0,511.71 -100.67,988.2 -302,1429.45 -203.01,439.57 -493.26,820.42 -874.11,1142.55 -275.15,226.5 -598.96,399.31 -973.1,521.78 -374.14,120.8 -775.13,181.2 -1204.63,181.2l-3008.22 0zm9363.57 0l-1842.18 0 0 -6573.46 1842.18 0 0 6573.46zm1612.32 0l0 -6573.46 4207.82 0 0 885.86 -2365.64 0 0 1912.64 2254.9 0 0 885.86 -2254.9 0 0 2889.1 -1842.18 0z"/>
 </g>
</svg>
