<?xml version="1.0" encoding="UTF-8"?>
<!DOCTYPE svg PUBLIC "-//W3C//DTD SVG 1.1//EN" "http://www.w3.org/Graphics/SVG/1.1/DTD/svg11.dtd">
<!-- Creator: CorelDRAW 2019 -->
<svg xmlns="http://www.w3.org/2000/svg" xml:space="preserve" width="396.875mm" height="396.875mm" version="1.1" style="shape-rendering:geometricPrecision; text-rendering:geometricPrecision; image-rendering:optimizeQuality; fill-rule:evenodd; clip-rule:evenodd"
viewBox="0 0 39687.48 39687.48"
 xmlns:xlink="http://www.w3.org/1999/xlink">
 <defs>
  <style type="text/css">
   <![CDATA[
    .fil3 {fill:#6B6B6C}
    .fil0 {fill:url(#id0)}
    .fil2 {fill:url(#id1)}
    .fil1 {fill:url(#id2)}
   ]]>
  </style>
  <linearGradient id="id0" gradientUnits="userSpaceOnUse" x1="29724.87" y1="17131.89" x2="19640.31" y2="16406.94">
   <stop offset="0" style="stop-opacity:1; stop-color:#545454"/>
   <stop offset="1" style="stop-opacity:1; stop-color:#FEFEFE"/>
  </linearGradient>
  <linearGradient id="id1" gradientUnits="userSpaceOnUse" x1="27317.4" y1="13617.54" x2="19660.06" y2="-6266.11">
   <stop offset="0" style="stop-opacity:1; stop-color:#A9272C"/>
   <stop offset="1" style="stop-opacity:1; stop-color:#FEFEFE"/>
  </linearGradient>
  <linearGradient id="id2" gradientUnits="userSpaceOnUse" xlink:href="#id1" x1="27317.43" y1="13617.54" x2="19660.07" y2="-6266.14">
  </linearGradient>
 </defs>
 <g id="Camada_x0020_1">
  <metadata id="CorelCorpID_0Corel-Layer"/>
  <path class="fil0" d="M26862.19 24563.85c-103.27,667.33 1266.39,11096.55 5348.65,7987.44 521.28,-397.02 850.29,-525.81 1036.41,-1169.36 -763.14,413.5 -1909.23,1187.36 -2845.47,479.54 1358.53,-1121.27 1366.95,-686.44 3101.61,-2474.94 178.77,-184.3 196.32,-158.69 346.41,-310.9l2136.69 -2973.93c1462.87,-2782.28 2263.48,-6014.64 1751.43,-9574.02 -1435.37,-9977.27 -10652.99,-12345.87 -10684.01,-12373.99 -387.34,-351.05 -256.66,-2938.2 -499.95,-3565.46 -511.42,1271.85 -280.55,7946.56 -531.98,9927.7 518.25,-31.65 3670.95,-599.69 3916.06,-794.64 474.61,-377.5 403.67,-720.61 1334.86,-1019.27 2905.99,-931.97 4500.35,3372.55 1672.47,4546.36 -738.28,306.45 -1515.56,32.43 -2111.54,-33.39 -544.22,-963.66 -2203.63,15.84 -3833.57,262.66l-656.36 -12.83c-109.16,-392.87 -101.14,-799.77 -335.54,-1185.62 -36.47,1246.5 220.11,10325.73 718.77,11968.48l135.06 316.17z"/>
  <g id="_520605224">
   <path class="fil1" d="M7690.41 15785.7l-227.35 2516.94c-1010.66,281.48 -2422.62,-29.46 -3160.82,-553.79 -0.93,-1053.15 616.79,-1325.13 1032.85,-1859.78 -712.45,250.09 -2811.78,1750.09 -1723.45,2651.56 1683.9,1394.78 10148.96,435.72 12269.1,137.81 1769.98,-248.72 1001.5,87.86 1870.87,-984.84 784.03,-967.48 2688.56,-1190.66 3694.73,23.3 1100.16,1327.39 460.85,3084.76 -855.68,3718.44 -1154.52,555.72 -1404.9,45.94 -2298.02,-78.7l-7351.8 1051.93c-4652.78,449.08 -5784.19,462.59 -10184.84,-356.47 1854.99,1544.16 4777.38,919.61 7341.3,1172.7 123.48,211.21 1219.97,2747.93 1285.02,2978.09 -891.56,37.77 -2512.6,65.86 -3125.95,-364.74 -970.03,-681.07 302.41,-1599.49 646.56,-2187.34 -1148.11,550.93 -3605.79,2380.69 -920.13,3145.54 2458.43,700.13 7877.94,148.01 10738.44,-182.75 897.94,-103.82 665.04,14.59 1149.81,-561.47 1146.62,-1362.5 3529.84,-1100.53 4149.23,657.17 695.98,1975.13 -1236.11,3835.58 -3172.29,3034.41 -695.76,-287.9 -510.86,-362.59 -1393.89,-207.38l-4476.01 657.46c-3345.87,372.2 -9432.39,851.93 -11765.44,-912.75 200.44,2747.41 9196.1,2323.04 11883.73,2116.99 1636.37,-125.45 1722.12,373.76 2978.6,995.94 2070.58,1025.25 3882.34,1348.95 6499.39,1513.55 487.63,561.95 1574.92,4396.2 4976.56,5053.51 2809.48,542.85 5111.1,-2147.3 5501.74,-4319.43 -564.47,1458.45 -2080.32,2782.03 -3690.72,3038.46 -1953.65,311.12 -3153.74,-976.35 -4080.62,-2574.64 -2570.08,-4431.79 -2756.35,-11074.21 -2215.24,-16419.3 102.18,-1009.66 507.96,-3857.03 436.24,-4586.29 -4787.47,619.06 -11912.89,1743.19 -16816.1,693.46 -782.99,-167.65 -1540.6,-367.38 -2118.36,-870.12 -908.25,-790.37 -341.74,-1342.75 1.15,-2119.73 -1084.32,624.7 -1488.95,1882.74 -343.41,2853 787.48,666.96 2177.33,1009.41 3464.8,1129.26z"/>
   <path class="fil2" d="M20385.21 3748.87c-2521.65,-334.91 -7078.74,2642.29 -9022.93,4809.4 -718.84,801.29 -1828.31,2509.67 -2086.9,2663.21 -1128.25,-617.46 129.09,-1791.83 594.68,-2326.7 311.87,-358.25 399.4,-433.83 669.45,-706.89 -1037.71,576.17 -2649.59,1732.21 -2441.02,3150.66 2658.49,1915.36 9996.86,306.38 13428.18,-16.07 832.68,-71.87 1861.49,-191.68 2452.05,-502.18 173.62,-485.63 1374.26,-6575.89 1364.13,-7071.84 -864.29,-181.74 -1557.41,-203.67 -2454.05,-207.01 -467.9,-1.7 -2104.49,-40.51 -2503.59,207.42z"/>
  </g>
  <path class="fil3" d="M18760.9 17855.34c-1479.89,996.49 -470.56,4040.21 1614.93,2865.88 2070.79,-1166.03 -82.16,-3897.96 -1614.93,-2865.88z"/>
  <path class="fil3" d="M31320.69 9638.47c-2065.79,1177.08 -301.96,3793.32 1501.52,2850 1749.77,-915.19 379.18,-3921.66 -1501.52,-2850z"/>
  <path class="fil3" d="M19125.09 26124.3c-2091.53,1003.8 -572.31,3741.85 1323.05,2918.31 1739.41,-755.79 666.37,-3873.13 -1323.05,-2918.31z"/>
 </g>
</svg>
