<?xml version="1.0" encoding="UTF-8"?>
<!DOCTYPE svg PUBLIC "-//W3C//DTD SVG 1.1//EN" "http://www.w3.org/Graphics/SVG/1.1/DTD/svg11.dtd">
<!-- Creator: CorelDRAW 2019 -->
<svg xmlns="http://www.w3.org/2000/svg" xml:space="preserve" width="169.333mm" height="169.333mm" version="1.1" style="shape-rendering:geometricPrecision; text-rendering:geometricPrecision; image-rendering:optimizeQuality; fill-rule:evenodd; clip-rule:evenodd"
viewBox="0 0 16933.32 16933.32"
 xmlns:xlink="http://www.w3.org/1999/xlink">
 <defs>
  <style type="text/css">
   <![CDATA[
    .fil2 {fill:#05D5EC}
    .fil4 {fill:#B07AC4}
    .fil5 {fill:#F16E4F}
    .fil6 {fill:url(#id0)}
    .fil1 {fill:url(#id1)}
    .fil7 {fill:url(#id2)}
    .fil3 {fill:url(#id3)}
    .fil0 {fill:url(#id4)}
   ]]>
  </style>
  <linearGradient id="id0" gradientUnits="userSpaceOnUse" x1="6033.07" y1="8518.79" x2="9436.91" y2="6899.32">
   <stop offset="0" style="stop-opacity:1; stop-color:#023454"/>
   <stop offset="1" style="stop-opacity:1; stop-color:#FEFEFE"/>
  </linearGradient>
  <linearGradient id="id1" gradientUnits="userSpaceOnUse" x1="7702.72" y1="9372.87" x2="796.05" y2="608.2">
   <stop offset="0" style="stop-opacity:1; stop-color:#04D3BC"/>
   <stop offset="1" style="stop-opacity:1; stop-color:#FEFEFE"/>
  </linearGradient>
  <linearGradient id="id2" gradientUnits="userSpaceOnUse" x1="3610.64" y1="10022.94" x2="19718.23" y2="14779.29">
   <stop offset="0" style="stop-opacity:1; stop-color:#53D4EC"/>
   <stop offset="1" style="stop-opacity:1; stop-color:#FEFEFE"/>
  </linearGradient>
  <linearGradient id="id3" gradientUnits="userSpaceOnUse" xlink:href="#id1" x1="9176.49" y1="16547.15" x2="-1136.07" y2="9148.29">
  </linearGradient>
  <linearGradient id="id4" gradientUnits="userSpaceOnUse" x1="11177.44" y1="1184.84" x2="17389.95" y2="12659.31">
   <stop offset="0" style="stop-opacity:1; stop-color:#F9A616"/>
   <stop offset="1" style="stop-opacity:1; stop-color:#FEFEFE"/>
  </linearGradient>
 </defs>
 <g id="Camada_x0020_1">
  <metadata id="CorelCorpID_0Corel-Layer"/>
  <path class="fil0" d="M6038.48 2956.5c624.6,-167.7 827.95,742.18 263.52,921.32 -607.73,192.92 -910.11,-747.67 -263.52,-921.32zm7427.4 5436.73l832.01 11.8c112.75,-3228.14 -2652,-5853.22 -5808.87,-5907.78 -628.92,-10.87 -1715.94,209.61 -1732.6,208.11 -233.47,-21.15 -330.76,-254.78 -796.93,-152.82 -893.45,195.47 -904.74,1404.55 -131.67,1696.03 391.78,147.67 820.95,15.12 1058.52,-303.97 290.47,-390.07 -150.42,-417.22 880.38,-555.72 297.54,-39.98 630.47,-44.9 952.76,-31.79 1028.08,41.8 2023.46,455.93 2812.89,1078.59 715.03,563.96 1337.61,1383.78 1643.08,2280.52 208.65,612.48 233.17,982.3 290.43,1677.03z"/>
  <path class="fil1" d="M12965.14 2517.74c637.32,-180.42 877.4,700.65 316.65,910.85 -631.09,236.53 -916.76,-740.98 -316.65,-910.85zm-2236.7 -1365.65c-221.26,-123.38 -1301.16,-305.16 -1623.84,-338.07 -1685.19,-171.83 -3458.13,315.99 -4801.35,1169.57 -1191.84,757.34 -2229.82,1928.92 -2798.16,3192.87 -147.47,328.02 -479.24,1108.83 -501.51,1483.75 118.55,51.31 682.55,178.64 806.79,164.99 59.09,-98.06 143.96,-496.57 203.08,-648.72 584.07,-1502.26 1284.53,-2472.58 2666.19,-3423.41 761.47,-523.98 1471.09,-749.72 2460.82,-1006.2 400.01,-103.63 1203.6,-117.31 1644.37,-96.16 588.16,28.22 961.26,141.67 1485.28,244.61 1312.6,481.29 814.8,284.86 1945.7,907.59 17.01,355.36 50.69,604.64 270.01,810.39 850.65,798.13 2010.62,-419.81 1325.67,-1194.82 -526.72,-595.97 -890.58,-159.07 -1183.22,-353.07 -499.27,-330.99 -1297.98,-755.28 -1899.83,-913.32z"/>
  <path class="fil2" d="M15421.52 7432.89c255.98,-85.61 545.79,83.29 594.01,314.14 65.58,313.86 -97.83,558.31 -330.11,614.5 -608.93,147.24 -891.16,-718.87 -263.9,-928.64zm-282.54 1253.05c49.76,738.47 -238.69,1729.4 -482.72,2308.94 -771.88,1833.29 -2395.36,3391.62 -4423.35,3922.91 -4.91,115.15 152.59,701.58 196.74,802.08 315.57,20.61 1399.33,-507.94 1656.2,-649.46 497.38,-274.07 979.09,-609.74 1363.1,-961.42 1487.37,-1362.09 2315.16,-2953.48 2545.58,-5040.32 31.32,-283.51 -45.05,-327.86 118.52,-481.1 919.62,-861.5 -218.78,-2015.45 -1066.37,-1425.93 -508.36,353.58 -549.81,1140.96 92.3,1524.3z"/>
  <path class="fil3" d="M8558.27 15737.11c-312.39,551.44 -1187.85,142.3 -880.8,-428.66 104.13,-193.57 349.09,-349.28 638.82,-223.65 201.42,87.35 374.57,418.22 241.98,652.31zm-6356.86 -2954.87c89.4,396.76 1344.31,1510.03 1762.27,1807.96 710.24,506.31 1495.07,910.19 2416.12,1150.08 256.67,66.86 454.76,116.2 719.67,164.22 493.13,89.36 89.29,100.58 525.69,364.37 1087.71,657.42 1915.49,-954.27 949.05,-1511.2 -730.43,-420.93 -1239.95,308.18 -1263.81,316.11 -783.39,-45.71 -2095.84,-648.84 -2607.99,-993.98 -1218.56,-821.18 -1569.08,-1527.83 -1844.39,-1758.71 -117.7,30.86 -590.6,394.22 -656.61,461.15z"/>
  <path class="fil4" d="M10406.26 8440.87c641.61,-198.21 862.59,788.93 268.54,932.04 -295.14,71.11 -538.05,-102.16 -597.68,-338.53 -81.78,-324.31 88.59,-519.23 329.14,-593.51zm-3652.39 19.3c-204.44,-25.52 -658.2,-27.07 -830.81,33.37 -99.49,1275.24 1502.03,2984.76 3432.53,2209.02 395.45,-158.89 950.48,-584.07 1090.61,-904.43 439.11,-21.73 724.47,-156.87 892.29,-485.7 185.95,-364.32 73.2,-816.54 -166.46,-1047.92 -593.93,-573.47 -1647.89,-90.44 -1503.62,785.06 54.87,333.04 171.41,213.75 -80.58,477.27 -916.34,958.33 -2332.72,451.63 -2687.34,-484.62 -152.46,-402.52 -101.92,-474.13 -146.62,-582.05z"/>
  <path class="fil5" d="M6132.37 7511.39c-131.7,-668.71 831.88,-788.85 948.54,-225.74 141.84,684.49 -835.56,799.17 -948.54,225.74zm1339.16 -460.18c436.52,-217.66 753.66,-403.77 1380.11,-226.75 352.96,99.77 832.24,438.68 960.11,771.57 176.98,-19.68 637.24,-289.35 746.67,-379.29 -50.23,-264.67 -464.51,-681.16 -641.07,-806.21 -669.29,-473.94 -1454.89,-625.79 -2253.87,-379.75 -189.78,58.43 -340.39,120.72 -503.92,218.08 -104.86,62.45 -317.73,258.69 -439.64,271.22 -312.13,32.05 -329.76,-32.49 -592.73,135.18 -562.92,358.79 -494.6,1139.06 -66.36,1451.87 303.12,221.41 729.15,265.8 1076.65,17.17 148.29,-106.06 245,-240.59 308.45,-414.82 105.76,-290.35 21.62,-399.08 25.6,-658.27z"/>
  <path class="fil6" d="M8038.04 12225.7c-128.33,-643.69 812.29,-822.49 945.26,-225.66 147.79,663.06 -825.12,828.48 -945.26,225.66zm-1812.91 -6387.64c175.39,-85.8 366.3,-293.02 860.42,-514.5 341.05,-152.82 725.36,-229.15 1141.73,-267.5 -10.79,-252.46 20.73,-616.55 -65.65,-832.82 -900.95,-67.13 -2395.98,781.04 -2422.82,962.93 -365.87,223.3 -809.27,799.41 -1060.64,1267.71 -256.6,478.08 -450.36,1160.83 -467.14,1809.2 -37.86,1460.54 574.71,2489.2 1362.25,3243.14 470,449.97 1208.08,827.32 1868.44,981.14 278.56,64.89 223.3,-2.51 388.37,200.45 160.43,197.21 428.05,359.88 811.98,311.82 1066.75,-133.56 981.53,-1801.86 -153.55,-1772.55 -360.42,9.28 -642.88,228.91 -742.68,450.55 -1185.19,-165.69 -2249.05,-1239.09 -2551.81,-2311.37 -320.05,-1133.5 -54.87,-2367.87 723.42,-3215.15 103.01,-112.13 230.46,-211.82 307.68,-313.05z"/>
  <path class="fil7" d="M2730.07 8813.47c287.84,-94.27 535.16,100.38 600.04,318.23 76.6,257.41 -90.6,535.81 -320.09,599 -615.04,169.32 -908.71,-711.33 -279.95,-917.23zm9855.82 2452.28c-111.43,67.7 -72.5,91.06 -145.58,195.69l-1156.3 1108.32c-50.12,40.6 -26.41,19.34 -60.98,51.31 -110.16,28.58 -507.39,280.77 -691.91,368.08 -297.2,140.59 -492.24,197.63 -816.81,298.93 -1746.14,544.9 -3846.31,-199.83 -4943.38,-1371.06 -343.75,-366.99 -672.07,-785.26 -902.92,-1287.62 -520.88,-1133.45 -207.02,-638.98 -121.1,-1222 25.63,-173.97 -3.25,-354.27 -62.99,-494.83 -224.08,-527.22 -989.07,-753.66 -1457.76,-265.02 -439.45,458.17 -290.39,1194.78 279.37,1441.59 172.81,74.9 259.65,11.6 321.33,202.81 290.08,899.59 814.33,1781.36 1501.8,2394.43 1864.34,1662.5 4330.81,2133.43 6641.87,1038.33 911.7,-431.99 1552.22,-1002.83 2126.28,-1767.75 91.29,-121.64 183.82,-185.83 236.33,-320.55l-686.38 -455.42 -60.87 84.76z"/>
 </g>
</svg>
